<svg data-v-fde0c5aa="" xmlns="http://www.w3.org/2000/svg" viewBox="0 0 300 300" class="iconAbove"><!----><defs data-v-fde0c5aa=""><!----></defs><rect data-v-fde0c5aa="" fill="#FC0600" x="0" y="0" width="300px" height="300px" class="logo-background-square"></rect><defs data-v-fde0c5aa=""><!----></defs><g data-v-fde0c5aa="" id="60df97aa-37d6-4e13-ad62-564972819f18" fill="#ffffff" transform="matrix(5.024875407319146,0,0,5.024875407319146,6.3136887819698275,176.13482676827044)"><path d="M0.49 13.30L3.81 13.30L3.81 12.89C2.90 12.82 2.56 12.78 2.48 12.19C2.41 11.73 2.38 11.20 2.38 10.46L2.38 4.87L2.41 4.87C4.41 7.69 6.40 10.49 8.37 13.30L9.30 13.30L9.30 6.45C9.30 5.71 9.32 5.18 9.39 4.72C9.48 4.13 9.81 4.07 10.54 4.02L10.54 3.61L7.22 3.61L7.22 4.02C8.13 4.09 8.47 4.13 8.55 4.72C8.62 5.18 8.65 5.71 8.65 6.45L8.65 11.37L8.62 11.34C6.79 8.76 4.97 6.19 3.16 3.61L0.48 3.61L0.48 4.02C1.71 4.10 1.74 4.13 1.74 4.91L1.74 10.46C1.74 11.20 1.71 11.73 1.64 12.19C1.55 12.78 1.22 12.84 0.49 12.89ZM11.41 13.30L15.54 13.30L15.54 12.89C14.10 12.81 14.06 12.78 14.06 12.00L14.06 8.72L16.02 8.72C17.21 8.72 17.26 9.06 17.39 9.95L17.81 9.95L17.81 6.96L17.39 6.96C17.26 7.85 17.21 8.19 16.02 8.19L14.06 8.19L14.06 4.61C14.06 4.14 14.11 4.10 14.57 4.10L15.96 4.10C17.58 4.10 17.91 4.42 18.10 5.85L18.52 5.85L18.52 3.61L11.41 3.61L11.41 4.02C12.64 4.10 12.67 4.13 12.67 4.91L12.67 12.00C12.67 12.78 12.64 12.81 11.41 12.89ZM19.74 10.43L19.88 12.67C20.50 13.24 21.66 13.51 22.64 13.51C25.12 13.51 26.10 12.10 26.10 10.67C26.10 9.02 24.98 8.23 23.34 7.63L22.89 7.46C21.95 7.11 21.17 6.51 21.17 5.67C21.17 4.65 21.78 3.89 22.96 3.89C24.16 3.89 24.84 4.58 25.06 5.99L25.49 5.99L25.49 4.02C25.02 3.64 24.07 3.40 23.11 3.40C21.41 3.40 19.89 4.26 19.89 6.10C19.89 7.57 21.07 8.34 22.54 8.86L22.79 8.96C23.41 9.20 24.74 9.84 24.74 11.09C24.74 12.29 23.97 13.02 22.72 13.02C21.41 13.02 20.54 12.00 20.19 10.43ZM30.25 13.30L34.59 13.30C36.72 13.30 38.09 12.53 38.09 10.58C38.09 8.93 36.92 8.20 35.56 8.02L35.56 7.99C36.88 7.73 37.65 6.92 37.65 5.84C37.65 5.07 37.34 4.49 36.78 4.12C36.23 3.75 35.42 3.61 34.30 3.61L30.25 3.61L30.25 4.02C31.49 4.10 31.51 4.13 31.51 4.91L31.51 12.00C31.51 12.78 31.49 12.81 30.25 12.89ZM32.90 11.73L32.90 8.33L33.91 8.33C35.64 8.33 36.60 9.20 36.60 10.68C36.60 12.36 35.45 12.81 34.24 12.81C33.12 12.81 32.90 12.60 32.90 11.73ZM32.90 7.84L32.90 4.80C32.90 4.20 32.94 4.10 34.03 4.10C35.06 4.10 36.18 4.48 36.18 5.92C36.18 7.29 35.29 7.84 33.84 7.84ZM39.93 4.14C39.93 4.65 40.28 5.00 40.78 5.00C41.29 5.00 41.64 4.65 41.64 4.14C41.64 3.64 41.29 3.29 40.78 3.29C40.28 3.29 39.93 3.64 39.93 4.14ZM39.09 13.30L42.50 13.30L42.50 12.89C41.51 12.82 41.45 12.80 41.45 12.08L41.45 6.36L41.36 6.27L39.16 6.62L39.16 6.97L39.69 7.04C40.05 7.10 40.14 7.17 40.14 7.67L40.14 12.08C40.14 12.80 40.10 12.82 39.09 12.89ZM43.30 14.64C43.30 16.06 44.70 16.69 46.33 16.69C47.17 16.69 48.05 16.52 48.72 16.11C49.36 15.72 49.83 15.06 49.83 14.20C49.83 12.68 48.62 12.15 47.12 12.15L46.00 12.15C45.00 12.15 44.84 11.82 44.84 11.55C44.84 11.14 45.37 10.92 45.56 10.86C45.82 10.89 46.12 10.91 46.27 10.91C47.60 10.91 49.10 10.32 49.10 8.62C49.10 8.04 48.92 7.55 48.68 7.31L49.78 7.14L50.06 6.26L49.95 6.13L48.16 6.71C47.77 6.44 47.00 6.27 46.35 6.27C44.21 6.27 43.46 7.59 43.46 8.62C43.46 9.94 44.32 10.54 44.97 10.71L44.97 10.74C44.21 11.03 43.68 11.44 43.68 11.98C43.68 12.47 44.24 13.01 44.91 13.08L44.91 13.10C44.31 13.30 43.30 13.64 43.30 14.64ZM44.63 14.57C44.63 14.10 44.77 13.75 45.07 13.52C45.37 13.29 45.84 13.20 46.51 13.20C47.74 13.20 48.65 13.50 48.65 14.55C48.65 15.67 47.64 16.20 46.65 16.20C45.46 16.20 44.63 15.58 44.63 14.57ZM44.88 8.62C44.88 7.24 45.61 6.76 46.35 6.76C47.04 6.76 47.75 7.27 47.75 8.62C47.75 9.80 47.14 10.42 46.33 10.42C45.54 10.42 44.88 9.80 44.88 8.62ZM50.55 11.87C50.55 12.52 51.53 13.47 53.35 13.47C55.66 13.47 56.71 12.07 56.71 10.29C56.71 8.33 55.48 7.32 53.82 7.32C53.05 7.32 52.22 7.66 51.77 8.06L51.74 8.04L52.07 5.42C52.11 5.07 52.21 5.01 52.47 5.01L55.96 5.01L56.29 4.06L56.22 3.95L51.55 3.95L51.41 4.07L51.13 8.76L51.46 8.93C52.05 8.26 52.63 7.94 53.38 7.94C54.28 7.94 55.26 8.60 55.26 10.44C55.26 11.89 54.67 12.98 53.45 12.98C52.47 12.98 51.97 12.26 51.69 11.47C51.62 11.26 51.49 11.13 51.30 11.13C51.02 11.13 50.55 11.41 50.55 11.87Z"></path></g><defs data-v-fde0c5aa=""><!----></defs><g data-v-fde0c5aa="" id="4f20d011-415b-4170-a1ab-936a7ae3879f" stroke="none" fill="#C6B9A9" transform="matrix(3.3751042986633135,0,0,3.3751042986633135,13.64579084025253,-7.5889718986528365)"><path d="M68.6 43H33.2L51 14.1 68.6 43zm-31.8-2H65L51 17.9 36.8 41z"></path><path d="M47.6 54H12.2L30 25.1 47.6 54zm-31.8-2H44L30 28.9 15.8 52z"></path><path d="M50.576 15.094l.928 1.772L30.508 27.86l-.928-1.771zM34.576 41.093l.928 1.772-20.996 10.994-.928-1.772zM66.575 41.094l.928 1.772L46.507 53.86l-.928-1.772z"></path></g><!----></svg>